<svg width="24" height="24" viewBox="0 0 24 24" fill="none" xmlns="http://www.w3.org/2000/svg">
  <path d="M6 14H18C19 14 20 15 20 16V18C20 19 19 20 18 20H6C5 20 4 19 4 18V16C4 15 5 14 6 14Z" fill="#8B4513"/>
  <path d="M8 14V12C8 10.5 9 9 10.5 9H13.5C15 9 16 10.5 16 12V14H8Z" fill="#D2691E"/>
  <ellipse cx="12" cy="8" rx="3" ry="1.5" fill="#654321"/>
  <path d="M10 6C10 5.5 10.5 5 11 5C11.5 5 12 5.5 12 6C12 6.5 11.5 7 11 7C10.5 7 10 6.5 10 6Z" fill="#8B4513"/>
  <path d="M13 5.5C13 5 13.5 4.5 14 4.5C14.5 4.5 15 5 15 5.5C15 6 14.5 6.5 14 6.5C13.5 6.5 13 6 13 5.5Z" fill="#8B4513"/>
  <rect x="7" y="16" width="10" height="1" fill="#A0522D"/>
</svg>
