<svg width="24" height="24" viewBox="0 0 24 24" fill="none" xmlns="http://www.w3.org/2000/svg">
  <!-- Muffin base -->
  <path d="M7 11C7 9.5 8.5 8 10.5 8H13.5C15.5 8 17 9.5 17 11V18C17 19.5 15.5 21 13.5 21H10.5C8.5 21 7 19.5 7 18V11Z" fill="#D2691E"/>
  <!-- Muffin top -->
  <ellipse cx="12" cy="10" rx="6" ry="3" fill="#CD853F"/>
  <!-- Muffin wrapper -->
  <path d="M8 16V19C8 19.5 8.5 20 9 20H15C15.5 20 16 19.5 16 19V16H8Z" fill="#8B4513"/>
  <!-- Texture dots -->
  <circle cx="10" cy="12" r="0.5" fill="#A0522D"/>
  <circle cx="14" cy="13" r="0.5" fill="#A0522D"/>
  <circle cx="12" cy="15" r="0.5" fill="#A0522D"/>
  <circle cx="11" cy="9" r="0.3" fill="#8B4513"/>
  <circle cx="13" cy="9.5" r="0.3" fill="#8B4513"/>
</svg>
