<svg width="24" height="24" viewBox="0 0 24 24" fill="none" xmlns="http://www.w3.org/2000/svg">
<path d="M17.472 14.382C17.235 14.264 16.034 13.671 15.823 13.594C15.612 13.517 15.457 13.478 15.302 13.716C15.146 13.954 14.677 14.503 14.543 14.659C14.408 14.814 14.274 14.834 14.037 14.716C13.8 14.598 13.009 14.328 12.061 13.487C11.321 12.835 10.828 12.034 10.693 11.796C10.559 11.558 10.677 11.434 10.795 11.316C10.901 11.211 11.032 11.041 11.15 10.906C11.268 10.772 11.307 10.677 11.384 10.522C11.461 10.366 11.423 10.232 11.363 10.114C11.304 9.996 10.815 8.794 10.625 8.318C10.441 7.858 10.254 7.916 10.111 7.908C9.976 7.9 9.821 7.899 9.666 7.899C9.511 7.899 9.254 7.958 9.043 8.196C8.832 8.434 8.199 9.027 8.199 10.229C8.199 11.431 9.063 12.592 9.181 12.748C9.299 12.903 10.811 15.318 13.207 16.396C13.758 16.641 14.187 16.8 14.52 16.916C15.076 17.086 15.583 17.061 15.987 17.002C16.44 16.935 17.408 16.416 17.598 15.846C17.788 15.276 17.788 14.785 17.728 14.686C17.669 14.587 17.514 14.527 17.277 14.409L17.472 14.382Z" fill="currentColor"/>
<path d="M20.52 3.449C18.24 1.245 15.24 0 12.045 0C5.463 0 0.104 5.334 0.101 11.893C0.1 13.988 0.644 16.025 1.678 17.812L0 24L6.304 22.361C8.032 23.295 9.988 23.789 12.041 23.79H12.045C18.626 23.79 23.984 18.455 23.987 11.896C23.989 8.796 22.8 5.853 20.52 3.449ZM12.045 21.785C10.227 21.784 8.447 21.318 6.906 20.441L6.53 20.221L2.828 21.218L3.846 17.655L3.596 17.267C2.633 15.668 2.122 13.81 2.123 11.893C2.125 6.447 6.576 2.014 12.049 2.014C14.683 2.015 17.15 3.049 18.982 4.892C20.814 6.735 21.832 9.192 21.831 11.896C21.829 17.342 17.378 21.785 12.045 21.785Z" fill="currentColor"/>
</svg>
